[Header]
FileType HTR
DataType HTRS
FileVersion 1
NumSegments 64
NumFrames 2
DataFrameRate 24
EulerRotationOrder ZYX
CalibrationUnits mm
RotationUnits Degrees
GlobalAxisofGravity Y
BoneLengthAxis Y
ScaleFactor 1.0
[SegmentNames&Hierarchy]
Hips	GLOBAL
Spine	Hips
Spine1	Spine
Spine2	Spine1
Neck	Spine2
Head	Neck
LeftEye	Head
RightEye	Head
LeftShoulder	Spine2
LeftArm	LeftShoulder
LeftForeArm	LeftArm
LeftHand	LeftForeArm
LeftHandThumb1	LeftHand
LeftHandThumb2	LeftHandThumb1
LeftHandThumb3	LeftHandThumb2
LeftHandThumb4	LeftHandThumb3
LeftHandIndex1	LeftHand
LeftHandIndex2	LeftHandIndex1
LeftHandIndex3	LeftHandIndex2
LeftHandIndex4	LeftHandIndex3
LeftHandMiddle1	LeftHand
LeftHandMiddle2	LeftHandMiddle1
LeftHandMiddle3	LeftHandMiddle2
LeftHandMiddle4	LeftHandMiddle3
LeftHandRing1	LeftHand
LeftHandRing2	LeftHandRing1
LeftHandRing3	LeftHandRing2
LeftHandRing4	LeftHandRing3
LeftHandPinky1	LeftHand
LeftHandPinky2	LeftHandPinky1
LeftHandPinky3	LeftHandPinky2
LeftHandPinky4	LeftHandPinky3
RightShoulder	Spine2
RightArm	RightShoulder
RightForeArm	RightArm
RightHand	RightForeArm
RightHandPinky1	RightHand
RightHandPinky2	RightHandPinky1
RightHandPinky3	RightHandPinky2
RightHandPinky4	RightHandPinky3
RightHandRing1	RightHand
RightHandRing2	RightHandRing1
RightHandRing3	RightHandRing2
RightHandRing4	RightHandRing3
RightHandMiddle1	RightHand
RightHandMiddle2	RightHandMiddle1
RightHandMiddle3	RightHandMiddle2
RightHandMiddle4	RightHandMiddle3
RightHandIndex1	RightHand
RightHandIndex2	RightHandIndex1
RightHandIndex3	RightHandIndex2
RightHandIndex4	RightHandIndex3
RightHandThumb1	RightHand
RightHandThumb2	RightHandThumb1
RightHandThumb3	RightHandThumb2
RightHandThumb4	RightHandThumb3
LeftUpLeg	Hips
LeftLeg	LeftUpLeg
LeftFoot	LeftLeg
LeftToeBase	LeftFoot
RightUpLeg	Hips
RightLeg	RightUpLeg
RightFoot	RightLeg
RightToeBase	RightFoot
[BasePosition]
Hips	0	0	0	0	0	0	1
Spine	0	0	0	0	0	0	1
Spine1	0	0	0	0	0	0	1
Spine2	0	0	0	0	0	0	1
Neck	0	0	0	0	0	0	1
Head	0	0	0	0	0	0	1
LeftEye	0	0	0	0	0	0	1
RightEye	0	0	0	0	0	0	1
LeftShoulder	0	0	0	0	0	0	1
LeftArm	0	0	0	0	0	0	1
LeftForeArm	0	0	0	0	0	0	1
LeftHand	0	0	0	0	0	0	1
LeftHandThumb1	0	0	0	0	0	0	1
LeftHandThumb2	0	0	0	0	0	0	1
LeftHandThumb3	0	0	0	0	0	0	1
LeftHandThumb4	0	0	0	0	0	0	1
LeftHandIndex1	0	0	0	0	0	0	1
LeftHandIndex2	0	0	0	0	0	0	1
LeftHandIndex3	0	0	0	0	0	0	1
LeftHandIndex4	0	0	0	0	0	0	1
LeftHandMiddle1	0	0	0	0	0	0	1
LeftHandMiddle2	0	0	0	0	0	0	1
LeftHandMiddle3	0	0	0	0	0	0	1
LeftHandMiddle4	0	0	0	0	0	0	1
LeftHandRing1	0	0	0	0	0	0	1
LeftHandRing2	0	0	0	0	0	0	1
LeftHandRing3	0	0	0	0	0	0	1
LeftHandRing4	0	0	0	0	0	0	1
LeftHandPinky1	0	0	0	0	0	0	1
LeftHandPinky2	0	0	0	0	0	0	1
LeftHandPinky3	0	0	0	0	0	0	1
LeftHandPinky4	0	0	0	0	0	0	1
RightShoulder	0	0	0	0	0	0	1
RightArm	0	0	0	0	0	0	1
RightForeArm	0	0	0	0	0	0	1
RightHand	0	0	0	0	0	0	1
RightHandPinky1	0	0	0	0	0	0	1
RightHandPinky2	0	0	0	0	0	0	1
RightHandPinky3	0	0	0	0	0	0	1
RightHandPinky4	0	0	0	0	0	0	1
RightHandRing1	0	0	0	0	0	0	1
RightHandRing2	0	0	0	0	0	0	1
RightHandRing3	0	0	0	0	0	0	1
RightHandRing4	0	0	0	0	0	0	1
RightHandMiddle1	0	0	0	0	0	0	1
RightHandMiddle2	0	0	0	0	0	0	1
RightHandMiddle3	0	0	0	0	0	0	1
RightHandMiddle4	0	0	0	0	0	0	1
RightHandIndex1	0	0	0	0	0	0	1
RightHandIndex2	0	0	0	0	0	0	1
RightHandIndex3	0	0	0	0	0	0	1
RightHandIndex4	0	0	0	0	0	0	1
RightHandThumb1	0	0	0	0	0	0	1
RightHandThumb2	0	0	0	0	0	0	1
RightHandThumb3	0	0	0	0	0	0	1
RightHandThumb4	0	0	0	0	0	0	1
LeftUpLeg	0	0	0	0	0	0	1
LeftLeg	0	0	0	0	0	0	1
LeftFoot	0	0	0	0	0	0	1
LeftToeBase	0	0	0	0	0	0	1
RightUpLeg	0	0	0	0	0	0	1
RightLeg	0	0	0	0	0	0	1
RightFoot	0	0	0	0	0	0	1
RightToeBase	0	0	0	0	0	0	1
[Hips]
1	17.13451004	1002.483154	6.629199505	2.146145344	66.06347656	-5.810482502	1.0
2	78.74133301	1011.240234	12.84372139	5.713333607	66.01760864	-2.143936396	1.0
[Spine]
1	0	101.8159943	1.315000057	5.889626503	-7.701002121	1.617123365	1.0
2	0	101.8159943	1.315000057	5.902681828	-7.04006958	-0.2778020203	1.0
[Spine1]
1	0	100.8349991	-10.00800037	4.194532871	-5.176445961	1.110182166	1.0
2	0	100.8349991	-10.00800037	4.224298	-4.778904915	0.5150012374	1.0
[Spine2]
1	0	91	-13.73399925	4.171136379	-5.202404976	1.093420625	1.0
2	0	91	-13.73399925	4.195995331	-4.810415268	0.4943494201	1.0
[Neck]
1	0	166.7169952	-25.16200066	5.039340019	-5.960304737	-0.8452606201	1.0
2	0	166.7169952	-25.16200066	4.823460102	-5.996841431	-0.9090450406	1.0
[Head]
1	0	96.17900085	16.84999847	-11.59611607	-34.12618637	11.47437572	1.0
2	0	96.17900085	16.84999847	-11.59957981	-34.32350159	11.91129971	1.0
[LeftEye]
1	30.6760006	64.09500122	92.83599854	0	0	0	1.0
2	30.6760006	64.09500122	92.83599854	0	0	0	1.0
[RightEye]
1	-30.6760006	64.09500122	92.83499908	0	0	0	1.0
2	-30.6760006	64.09500122	92.83499908	0	0	0	1.0
[LeftShoulder]
1	45.70400238	109.4599991	-26.28000069	1.950618267	-7.917369366	-9.748616219	1.0
2	45.70400238	109.4599991	-26.28000069	2.019624949	-7.24169445	-9.900007248	1.0
[LeftArm]
1	105.923996	-5.24600029	-22.32099915	33.49546051	-24.34958839	-59.73916626	1.0
2	105.923996	-5.24600029	-22.32099915	31.24576759	-19.59262466	-56.76383209	1.0
[LeftForeArm]
1	278.414978	-0.0009999999311	0	-6.790654652e-07	-15.58891201	-0.0002038199164	1.0
2	278.414978	-0.0009999999311	0	-6.679608759e-06	-16.98841095	-0.0001787681686	1.0
[LeftHand]
1	283.2879944	0	0	0.004697935656	-0.7593409419	4.413471699	1.0
2	283.2879944	0	0	-2.020294905	-2.888427973	4.276264191	1.0
[LeftHandThumb1]
1	24.6609993	-15.75	26.8239994	0.9464570284	1.151123047	0.2541034818	1.0
2	24.6609993	-15.75	26.8239994	0.9464570284	1.151123047	0.2541034818	1.0
[LeftHandThumb2]
1	32.29800034	-18.64699936	18.64699936	15.58803272	2.489709854	18.10643196	1.0
2	32.29800034	-18.64699936	18.64699936	13.36301517	2.261677265	18.57851601	1.0
[LeftHandThumb3]
1	26.52600098	-15.31499958	15.31499958	-2.857403278	-12.53291798	22.2556324	1.0
2	26.52600098	-15.31499958	15.31499958	-2.510922194	-11.69050026	22.05236244	1.0
[LeftHandThumb4]
1	19.54599953	-11.28499985	11.28499985	0	0	0	1.0
2	19.54599953	-11.28499985	11.28499985	0	0	0	1.0
[LeftHandIndex1]
1	91.09299469	-5.170999527	22.60099792	-1.525067091	-0.9784328938	-25.74981499	1.0
2	91.09299469	-5.170999527	22.60099792	-1.451484799	-1.553967595	-24.897295	1.0
[LeftHandIndex2]
1	36.76399994	0	0	-0.1281841993	1.217316628	-12.02183151	1.0
2	36.76399994	0	0	-0.1277019083	1.215065956	-11.99927807	1.0
[LeftHandIndex3]
1	28.83100128	0	0	-0.1333713531	1.241414547	-12.26360893	1.0
2	28.83100128	0	0	-0.1328824759	1.239158273	-12.24093723	1.0
[LeftHandIndex4]
1	23.92700005	0	0	0	0	0	1.0
2	23.92700005	0	0	0	0	0	1.0
[LeftHandMiddle1]
1	95.33399963	0	0	-2.06259346	3.50453639	-31.81070328	1.0
2	95.33399963	0	0	-2.016242266	3.072557926	-31.29843903	1.0
[LeftHandMiddle2]
1	36.98199844	0	0	-0.3018290401	1.85363996	-18.49510193	1.0
2	36.98199844	0	0	-0.3006717265	1.850180268	-18.45929146	1.0
[LeftHandMiddle3]
1	29.50900078	0	0	-0.1084182262	1.120507836	-11.05296516	1.0
2	29.50900078	0	0	-0.1077177003	1.116913795	-11.01705551	1.0
[LeftHandMiddle4]
1	28.3390007	0	0	0	0	0	1.0
2	28.3390007	0	0	0	0	0	1.0
[LeftHandRing1]
1	91.04499817	-0.4390000105	-18.65100098	-2.193198681	7.23500967	-33.2721138	1.0
2	91.04499817	-0.4390000105	-18.65100098	-2.136315823	7.159062386	-32.64224625	1.0
[LeftHandRing2]
1	31.54000092	0	0	-0.4718870521	2.300091743	-23.18498802	1.0
2	31.54000092	0	0	-0.4765720665	2.310988188	-23.30144882	1.0
[LeftHandRing3]
1	29.37700081	0	0	-0.3396477997	1.963025212	-19.63078499	1.0
2	29.37700081	0	0	-0.343696028	1.974329352	-19.74856567	1.0
[LeftHandRing4]
1	26.47500038	0	0	0	0	0	1.0
2	26.47500038	0	0	0	0	0	1.0
[LeftHandPinky1]
1	80.77799988	-4.887000084	-38.06099701	-2.530030966	5.020759583	-36.85699081	1.0
2	80.77799988	-4.887000084	-38.06099701	-2.483677626	4.958753586	-36.36528397	1.0
[LeftHandPinky2]
1	36	0	0	-0.5053883791	2.376728535	-24.00607681	1.0
2	36	0	0	-0.510246098	2.387591839	-24.12290573	1.0
[LeftHandPinky3]
1	21.14200211	0	0	-0.2226541787	1.597679019	-15.86637497	1.0
2	21.14200211	0	0	-0.2260636091	1.609620929	-15.98820019	1.0
[LeftHandPinky4]
1	19.75699997	0	0	0	0	0	1.0
2	19.75699997	0	0	0	0	0	1.0
[RightShoulder]
1	-45.70000076	109.4620056	-26.28000069	0.3492159545	-1.471675873	9.829175949	1.0
2	-45.70000076	109.4620056	-26.28000069	0.2609003186	-0.6946789622	9.600921631	1.0
[RightArm]
1	-105.9280014	-5.248000145	-22.32099915	16.89070129	7.323745728	64.84467316	1.0
2	-105.9280014	-5.248000145	-22.32099915	17.62456512	8.641182899	65.96188354	1.0
[RightForeArm]
1	-278.414978	0	0	-5.600905297e-06	10.88051319	-1.340027893e-06	1.0
2	-278.414978	0	0	-9.453263488e-07	13.77631187	-1.024159701e-05	1.0
[RightHand]
1	-283.2879944	0	0.0009999999311	5.861548901	6.67755127	3.736656427	1.0
2	-283.2879944	0	0.0009999999311	6.187236309	7.576814651	4.282121658	1.0
[RightHandPinky1]
1	-80.76699829	-4.885000229	-38.06000137	-1.702342272	-2.528396368	29.59060097	1.0
2	-80.76699829	-4.885000229	-38.06000137	-1.694156766	-2.502815008	29.48101234	1.0
[RightHandPinky2]
1	-36	0	0.0009999999311	-0.3775835037	-1.833147645	23.29549408	1.0
2	-36	0	0.0009999999311	-0.3719791472	-1.820075154	23.11948013	1.0
[RightHandPinky3]
1	-21.14200211	0	0	-0.4318717122	-1.954472184	24.91845703	1.0
2	-21.14200211	0	0	-0.4274484515	-1.944919705	24.78831291	1.0
[RightHandPinky4]
1	-19.75699997	0	0	0	0	0	1.0
2	-19.75699997	0	0	0	0	0	1.0
[RightHandRing1]
1	-91.03599548	-0.4390000105	-18.65100098	-1.914600253	-2.697015762	32.57826614	1.0
2	-91.03599548	-0.4390000105	-18.65100098	-1.929329038	-2.664807558	32.76837921	1.0
[RightHandRing2]
1	-31.54000092	0	0	-0.7087621093	-2.463946581	32.09183121	1.0
2	-31.54000092	0	0	-0.7078084946	-2.462431669	32.06976318	1.0
[RightHandRing3]
1	-29.37700081	0	0	-0.7872390151	-2.584769726	33.87369919	1.0
2	-29.37700081	0	0	-0.7862402201	-2.583259583	33.85129547	1.0
[RightHandRing4]
1	-26.47500038	0	0	0	0	0	1.0
2	-26.47500038	0	0	0	0	0	1.0
[RightHandMiddle1]
1	-95.32500458	0	0	-2.219618559	-0.9948293567	36.48439026	1.0
2	-95.32500458	0	0	-2.217296839	-0.9946367741	36.45539474	1.0
[RightHandMiddle2]
1	-36.98199844	0	0	-0.4374004602	-1.966320038	25.07984543	1.0
2	-36.98199844	0	0	-0.4366118312	-1.96462667	25.05696297	1.0
[RightHandMiddle3]
1	-29.50900078	0	0	-0.3046112359	-1.655308127	20.87729645	1.0
2	-29.50900078	0	0	-0.3039392233	-1.653590322	20.85419273	1.0
[RightHandMiddle4]
1	-28.3390007	0	0.0009999999311	0	0	0	1.0
2	-28.3390007	0	0.0009999999311	0	0	0	1.0
[RightHandIndex1]
1	-91.08300018	-5.167999744	22.60099792	-1.103259325	6.990418911	22.40455818	1.0
2	-91.08300018	-5.167999744	22.60099792	-1.106588602	6.886311531	22.43552208	1.0
[RightHandIndex2]
1	-36.76399994	0	0	-0.5686532259	-2.225151539	28.66814804	1.0
2	-36.76399994	0	0	-0.5727904439	-2.232684851	28.77438927	1.0
[RightHandIndex3]
1	-28.83100128	0	0	-0.2336083204	-1.453639984	18.2588253	1.0
2	-28.83100128	0	0	-0.236341998	-1.461883545	18.36612892	1.0
[RightHandIndex4]
1	-23.92700005	0	0	0	0	0	1.0
2	-23.92700005	0	0	0	0	0	1.0
[RightHandThumb1]
1	-24.64799881	-15.72700024	26.82600021	30.15343666	21.14214134	-10.25145817	1.0
2	-24.64799881	-15.72700024	26.82600021	30.15343666	21.14214134	-10.25145817	1.0
[RightHandThumb2]
1	-32.29800034	-18.64699936	18.64699936	10.43606663	-21.63964272	0.7531636357	1.0
2	-32.29800034	-18.64699936	18.64699936	10.50909328	-22.39588737	0.7352769971	1.0
[RightHandThumb3]
1	-26.52600098	-15.31399918	15.31399918	-11.84796524	-13.66853142	-10.32497597	1.0
2	-26.52600098	-15.31399918	15.31399918	-11.8482151	-13.668787	-10.32971191	1.0
[RightHandThumb4]
1	-19.54599953	-11.28499985	11.28499985	0	0	0	1.0
2	-19.54599953	-11.28499985	11.28499985	0	0	0	1.0
[LeftUpLeg]
1	82.07800293	-67.51699829	-15.99599934	-31.76502037	14.65436745	-0.4217801988	1.0
2	82.07800293	-67.51699829	-15.99599934	-35.75722122	13.26165581	-0.1701812148	1.0
[LeftLeg]
1	0	-443.7049866	2.845999956	60.86547089	-0.6546308398	-1.706532359	1.0
2	0	-443.7049866	2.845999956	48.69314194	-0.5150746703	-0.9452185035	1.0
[LeftFoot]
1	0	-444.2789917	-29.8219986	-3.534517527	-0.04828462005	2.20190835	1.0
2	0	-444.2789917	-29.8219986	-4.387441635	-0.00284884288	-1.376837134	1.0
[LeftToeBase]
1	0	-87.28699493	107.1060028	-8.975722313	-2.56205185e-05	3.64326138e-06	1.0
2	0	-87.28699493	107.1060028	-7.767651558	-2.154351569e-05	-2.080275408e-06	1.0
[RightUpLeg]
1	-82.07800293	-67.51699829	-15.99599934	-25.81711388	-0.7114825845	2.28403616	1.0
2	-82.07800293	-67.51699829	-15.99599934	-20.58065987	-1.432328463	-0.5914629102	1.0
[RightLeg]
1	0	-443.7049866	2.861999989	27.84389496	5.27695322	2.827932596	1.0
2	0	-443.7049866	2.861999989	24.76407814	5.861272812	2.762047529	1.0
[RightFoot]
1	0	-444.2770081	-29.83799934	-9.314695358	0.7339173555	-0.9620086551	1.0
2	0	-444.2770081	-29.83799934	-11.78519344	0.9620968103	0.07717403769	1.0
[RightToeBase]
1	0	-87.28699493	107.1060028	-6.010779381	2.767219303e-05	-8.49529215e-07	1.0
2	0	-87.28699493	107.1060028	-6.010782719	-1.524886466e-05	4.046911215e-07	1.0
[EndOfFile]
